HIERARCHY
ROOT hip
{
  OFFSET 5.51535 103.731 -2.80141
  CHANNELS 6 Xposition Yposition Zposition Zrotation Xrotation Yrotation
  JOINT abdomen
  {
    OFFSET 0 -1.186 -1.5018
    CHANNELS 6 Xposition Yposition Zposition Zrotation Xrotation Yrotation
    JOINT abdomen2
    {
      OFFSET 0 9.964 0.2134
      CHANNELS 6 Xposition Yposition Zposition Zrotation Xrotation Yrotation
      JOINT chest
      {
        OFFSET 0 13.134 -3.2573
        CHANNELS 6 Xposition Yposition Zposition Zrotation Xrotation Yrotation
        JOINT neck
        {
          OFFSET 0 20.686 -1.6905
          CHANNELS 6 Xposition Yposition Zposition Zrotation Xrotation Yrotation
          JOINT head
          {
            OFFSET 0 7.23801 -0.1237
            CHANNELS 6 Xposition Yposition Zposition Zrotation Xrotation Yrotation
            End Site
            {
              OFFSET 0 0 0
            }
          }
        }
        JOINT lCollar
        {
          OFFSET 1.7069 20.075 5.0056
          CHANNELS 6 Xposition Yposition Zposition Zrotation Xrotation Yrotation
          JOINT lShldr
          {
            OFFSET 13.6458 -0.0470195 -4.849
            CHANNELS 6 Xposition Yposition Zposition Zrotation Xrotation Yrotation
            JOINT lForeArm
            {
              OFFSET 28.3255 -0.97589 2.2888
              CHANNELS 6 Xposition Yposition Zposition Zrotation Xrotation Yrotation
              JOINT lHand
              {
                OFFSET 22.1583 -0.529998 10.8316
                CHANNELS 6 Xposition Yposition Zposition Zrotation Xrotation Yrotation
                JOINT lThumb1
                {
                  OFFSET 0.786 0.111997 2.5817
                  CHANNELS 6 Xposition Yposition Zposition Zrotation Xrotation Yrotation
                  JOINT lThumb2
                  {
                    OFFSET 0.360097 -0.877999 4.2331
                    CHANNELS 6 Xposition Yposition Zposition Zrotation Xrotation Yrotation
                    JOINT lThumb2_End
                    {
                      OFFSET 1.8127 -1.21601 2.2227
                      CHANNELS 6 Xposition Yposition Zposition Zrotation Xrotation Yrotation
                      End Site
                      {
                        OFFSET 0.0180981 -0.012195 0.0222007
                      }
                    }
                  }
                }
                JOINT lCarpal1
                {
                  OFFSET 0.9571 1.114 1.7695
                  CHANNELS 6 Xposition Yposition Zposition Zrotation Xrotation Yrotation
                  JOINT lIndex1
                  {
                    OFFSET 4.12461 0.486992 4.1451
                    CHANNELS 6 Xposition Yposition Zposition Zrotation Xrotation Yrotation
                    JOINT lIndex2
                    {
                      OFFSET 3.4052 -1.45401 2.7682
                      CHANNELS 6 Xposition Yposition Zposition Zrotation Xrotation Yrotation
                      JOINT lIndex2_End
                      {
                        OFFSET 1.45309 -1.79499 1.2713
                        CHANNELS 6 Xposition Yposition Zposition Zrotation Xrotation Yrotation
                        End Site
                        {
                          OFFSET 0.0144979 -0.0179083 0.0126995
                        }
                      }
                    }
                  }
                  JOINT lMid1
                  {
                    OFFSET 5.6954 0.209987 2.1184
                    CHANNELS 6 Xposition Yposition Zposition Zrotation Xrotation Yrotation
                    JOINT lMid2
                    {
                      OFFSET 3.9766 -1.53999 2.3863
                      CHANNELS 6 Xposition Yposition Zposition Zrotation Xrotation Yrotation
                      JOINT lMid2_End
                      {
                        OFFSET 1.4042 -1.926 1.125
                        CHANNELS 6 Xposition Yposition Zposition Zrotation Xrotation Yrotation
                        End Site
                        {
                          OFFSET 0.013999 -0.0193044 0.011301
                        }
                      }
                    }
                  }
                }
                JOINT lCarpal2
                {
                  OFFSET 2.0956 0.66 -0.3894
                  CHANNELS 6 Xposition Yposition Zposition Zrotation Xrotation Yrotation
                  JOINT lRing1
                  {
                    OFFSET 5.0395 -0.090013 2.4971
                    CHANNELS 6 Xposition Yposition Zposition Zrotation Xrotation Yrotation
                    JOINT lRing2
                    {
                      OFFSET 3.7921 -1.55199 1.4806
                      CHANNELS 6 Xposition Yposition Zposition Zrotation Xrotation Yrotation
                      JOINT lRing2_End
                      {
                        OFFSET 1.4655 -1.808 0.9609
                        CHANNELS 6 Xposition Yposition Zposition Zrotation Xrotation Yrotation
                        End Site
                        {
                          OFFSET 0.0147015 -0.0181014 0.00959957
                        }
                      }
                    }
                  }
                  JOINT lPinky1
                  {
                    OFFSET 4.9141 -1.269 0.3591
                    CHANNELS 6 Xposition Yposition Zposition Zrotation Xrotation Yrotation
                    JOINT lPinky2
                    {
                      OFFSET 3.1477 -1.685 0.8462
                      CHANNELS 6 Xposition Yposition Zposition Zrotation Xrotation Yrotation
                      JOINT lPinky2_End
                      {
                        OFFSET 0.805498 -1.58501 0.795499
                        CHANNELS 6 Xposition Yposition Zposition Zrotation Xrotation Yrotation
                        End Site
                        {
                          OFFSET 0.00809703 -0.0157944 0.00799848
                        }
                      }
                    }
                  }
                }
              }
            }
          }
        }
        JOINT rCollar
        {
          OFFSET -1.7069 20.075 5.0056
          CHANNELS 6 Xposition Yposition Zposition Zrotation Xrotation Yrotation
          JOINT rShldr
          {
            OFFSET -13.6458 -0.0470107 -4.849
            CHANNELS 6 Xposition Yposition Zposition Zrotation Xrotation Yrotation
            JOINT rForeArm
            {
              OFFSET -28.3255 -0.975895 2.2888
              CHANNELS 6 Xposition Yposition Zposition Zrotation Xrotation Yrotation
              JOINT rHand
              {
                OFFSET -22.1583 -0.530007 10.8316
                CHANNELS 6 Xposition Yposition Zposition Zrotation Xrotation Yrotation
                JOINT rThumb1
                {
                  OFFSET -0.785997 0.112005 2.5817
                  CHANNELS 6 Xposition Yposition Zposition Zrotation Xrotation Yrotation
                  JOINT rThumb2
                  {
                    OFFSET -0.360106 -0.877994 4.2331
                    CHANNELS 6 Xposition Yposition Zposition Zrotation Xrotation Yrotation
                    JOINT rThumb2_End
                    {
                      OFFSET -1.8127 -1.216 2.2227
                      CHANNELS 6 Xposition Yposition Zposition Zrotation Xrotation Yrotation
                      End Site
                      {
                        OFFSET -0.0180972 -0.0121973 0.0222005
                      }
                    }
                  }
                }
                JOINT rCarpal1
                {
                  OFFSET -0.9571 1.114 1.7695
                  CHANNELS 6 Xposition Yposition Zposition Zrotation Xrotation Yrotation
                  JOINT rIndex1
                  {
                    OFFSET -4.1246 0.487011 4.1451
                    CHANNELS 6 Xposition Yposition Zposition Zrotation Xrotation Yrotation
                    JOINT rIndex2
                    {
                      OFFSET -3.4052 -1.45401 2.7682
                      CHANNELS 6 Xposition Yposition Zposition Zrotation Xrotation Yrotation
                      JOINT rIndex2_End
                      {
                        OFFSET -1.4531 -1.795 1.2713
                        CHANNELS 6 Xposition Yposition Zposition Zrotation Xrotation Yrotation
                        End Site
                        {
                          OFFSET -0.0145077 -0.0180048 0.0127017
                        }
                      }
                    }
                  }
                  JOINT rMid1
                  {
                    OFFSET -5.6954 0.210002 2.1184
                    CHANNELS 6 Xposition Yposition Zposition Zrotation Xrotation Yrotation
                    JOINT rMid2
                    {
                      OFFSET -3.9766 -1.54 2.3863
                      CHANNELS 6 Xposition Yposition Zposition Zrotation Xrotation Yrotation
                      JOINT rMid2_End
                      {
                        OFFSET -1.4042 -1.926 1.125
                        CHANNELS 6 Xposition Yposition Zposition Zrotation Xrotation Yrotation
                        End Site
                        {
                          OFFSET -0.0139948 -0.0192916 0.0112994
                        }
                      }
                    }
                  }
                }
                JOINT rCarpal2
                {
                  OFFSET -2.0956 0.66 -0.3894
                  CHANNELS 6 Xposition Yposition Zposition Zrotation Xrotation Yrotation
                  JOINT rRing1
                  {
                    OFFSET -5.03951 -0.0899879 2.4971
                    CHANNELS 6 Xposition Yposition Zposition Zrotation Xrotation Yrotation
                    JOINT rRing2
                    {
                      OFFSET -3.7921 -1.55201 1.4806
                      CHANNELS 6 Xposition Yposition Zposition Zrotation Xrotation Yrotation
                      JOINT rRing2_End
                      {
                        OFFSET -1.4655 -1.808 0.960901
                        CHANNELS 6 Xposition Yposition Zposition Zrotation Xrotation Yrotation
                        End Site
                        {
                          OFFSET -0.0146934 -0.0180999 0.00959832
                        }
                      }
                    }
                  }
                  JOINT rPinky1
                  {
                    OFFSET -4.91411 -1.26899 0.359202
                    CHANNELS 6 Xposition Yposition Zposition Zrotation Xrotation Yrotation
                    JOINT rPinky2
                    {
                      OFFSET -3.14769 -1.68501 0.846199
                      CHANNELS 6 Xposition Yposition Zposition Zrotation Xrotation Yrotation
                      JOINT rPinky2_End
                      {
                        OFFSET -0.805498 -1.585 0.7955
                        CHANNELS 6 Xposition Yposition Zposition Zrotation Xrotation Yrotation
                        End Site
                        {
                          OFFSET -0.00810035 -0.0158035 0.00800029
                        }
                      }
                    }
                  }
                }
              }
            }
          }
        }
      }
    }
  }
  JOINT lThigh
  {
    OFFSET 8.367 -8.2066 0.5982
    CHANNELS 6 Xposition Yposition Zposition Zrotation Xrotation Yrotation
    JOINT lShin
    {
      OFFSET 2.1923 -43.463 -0.4932
      CHANNELS 6 Xposition Yposition Zposition Zrotation Xrotation Yrotation
      JOINT lFoot
      {
        OFFSET 0.733301 -45.8593 -2.6451
        CHANNELS 6 Xposition Yposition Zposition Zrotation Xrotation Yrotation
        End Site
        {
          OFFSET 2.6618 -4.2699 12.3931
        }
      }
    }
  }
  JOINT rThigh
  {
    OFFSET -8.367 -8.2066 0.5982
    CHANNELS 6 Xposition Yposition Zposition Zrotation Xrotation Yrotation
    JOINT rShin
    {
      OFFSET -2.1923 -43.463 -0.4931
      CHANNELS 6 Xposition Yposition Zposition Zrotation Xrotation Yrotation
      JOINT rFoot
      {
        OFFSET -0.733299 -45.8593 -2.6451
        CHANNELS 6 Xposition Yposition Zposition Zrotation Xrotation Yrotation
        End Site
        {
          OFFSET -2.6618 -4.2699 12.3931
        }
      }
    }
  }
}
MOTION
Frames:	4
Frame Time:	0.0333333
-72.5066 74.327 46.5649 34.7797 -50.2988 -178.161 6.26664e-007 -1.186 -1.5018 3.99371 7.20991 -3.18625 -1.23106e-006 9.964 0.2134 8.48731 14.1653 -6.95612 -9.19564e-007 13.134 -3.2573 8.48731 14.1653 -6.95612 -1.36803e-005 20.6861 -1.69056 -1.3592 -13.8846 -23.3594 5.60585e-006 7.23804 -0.123696 43.3012 5.5408 0.983431 1.7069 20.075 5.0056 12.795 -3.68575 -32.6415 13.6458 -0.0470124 -4.849 -43.4451 -17.1707 -69.0257 28.3255 -0.975901 2.28881 -22.8128 0.0199494 -66.9684 22.1583 -0.529989 10.8316 27.874 28.4961 18.0623 0.786003 0.111997 2.5817 29.0017 36.8211 -34.7962 0.360097 -0.878 4.2331 -6.33701 -0.117407 -11.5742 1.8127 -1.21601 2.2227 6.48485 1.48417 12.0601 0.9571 1.114 1.7695 3.18055e-015 1.59028e-015 1.59028e-015 4.12461 0.486992 4.1451 -4.88731 4.53868 12.6178 3.4052 -1.45401 2.7682 -36.3636 10.0329 17.8992 1.4531 -1.79499 1.2713 -37.4308 10.1389 18.4808 5.69541 0.209987 2.1184 -1.58701 -0.577 1.618 3.9766 -1.53999 2.3863 -43.8283 12.176 22.7531 1.4042 -1.926 1.125 -9.03166 4.06864 4.02201 2.0956 0.66 -0.3894 3.18055e-015 1.59028e-015 1.59028e-015 5.0395 -0.0900133 2.4971 -8.44088 -1.94813 5.79525 3.7921 -1.55199 1.4806 -14.2679 6.4828 7.41471 1.4655 -1.808 0.960899 -15.7294 7.0184 8.23411 4.9141 -1.269 0.359103 10.4038 -12.5936 2.33179 3.1477 -1.68501 0.846202 -18.2185 8.51744 9.60867 0.8055 -1.58501 0.795496 -8.80549 4.5936 4.39826 -1.7069 20.075 5.0056 -24.9931 0.412082 -26.2331 -13.6458 -0.0470115 -4.84901 29.9761 -24.6767 15.2465 -28.3255 -0.975885 2.2888 -22.9116 -33.3489 22.1463 -22.1583 -0.530005 10.8316 177.385 -30.9232 161.42 -0.786001 0.112005 2.5817 -19.2122 49.9311 17.7821 -0.360101 -0.877997 4.2331 -0.518279 0.461557 -1.59083 -1.81269 -1.216 2.2227 -4.28444 4.79436 -14.6328 -0.9571 1.114 1.7695 -0 0 1.59028e-015 -4.12461 0.487011 4.1451 -23.6186 3.40252 -15.5054 -3.4052 -1.45401 2.76819 39.498 10.0975 -9.27464 -1.4531 -1.795 1.2713 44.8041 10.8647 -10.9437 -5.6954 0.210001 2.1184 -1.04223 5.48649 -10.0636 -3.9766 -1.54 2.3863 52.3089 13.5301 -14.1044 -1.4042 -1.92599 1.12501 44.0034 12.3922 -11.1855 -2.0956 0.66 -0.3894 -0 0 1.59028e-015 -5.03951 -0.0899878 2.4971 16.4925 0.27518 -5.659 -3.7921 -1.55201 1.48061 37.334 11.9098 -10.7862 -1.4655 -1.808 0.960906 38.6321 12.1694 -11.2724 -4.9141 -1.26899 0.359198 24.6637 -0.263306 -2.07534 -3.14769 -1.68501 0.846197 30.529 11.3153 -8.19431 -0.805501 -1.58499 0.795504 30.4593 11.2958 -8.16992 8.367 -8.2066 0.598203 152.339 -50.7571 162.887 2.19231 -43.463 -0.493226 -0.483415 68.2885 3.01802 0.733302 -45.8593 -2.64511 18.8285 -0.485105 -22.1873 -8.367 -8.2066 0.598201 -75.3755 -78.8081 -112.028 -2.19229 -43.463 -0.493125 46.8728 70.1483 -42.4162 -0.733303 -45.8593 -2.64511 -5.22038 -13.9158 7.60657 
-72.5313 76.4111 46.6444 36.3262 -53.2024 -176.038 9.08571e-007 -1.186 -1.5018 4.38944 7.01212 -2.89751 -3.69432e-007 9.964 0.213397 9.23465 13.7691 -6.40187 -1.22654e-006 13.134 -3.2573 9.23467 13.7691 -6.40188 -1.28318e-007 20.686 -1.69052 -1.57309 -17.7816 -26.7554 7.9246e-006 7.23801 -0.123702 43.3659 7.1012 -0.671644 1.7069 20.075 5.0056 12.4486 -3.793 -35.1045 13.6458 -0.0470108 -4.849 -41.5886 -18.7191 -67.0045 28.3255 -0.975899 2.28881 -22.6378 -0.833847 -70.7932 22.1583 -0.529985 10.8316 25.6899 29.9663 19.9059 0.786003 0.111998 2.5817 29.0018 36.8211 -34.7962 0.360096 -0.878002 4.2331 -6.33701 -0.11741 -11.5742 1.8127 -1.21601 2.2227 6.48484 1.48416 12.0601 0.9571 1.114 1.7695 -3.18055e-015 0 3.18055e-015 4.12461 0.486991 4.1451 -4.88733 4.53868 12.6179 3.4052 -1.45401 2.7682 -36.3636 10.0329 17.8992 1.4531 -1.79499 1.2713 -37.4308 10.1389 18.4808 5.6954 0.209987 2.1184 -1.58702 -0.576982 1.618 3.9766 -1.53999 2.3863 -43.8283 12.176 22.7531 1.4042 -1.926 1.125 -9.03164 4.06863 4.02201 2.0956 0.66 -0.3894 -3.18055e-015 0 3.18055e-015 5.0395 -0.0900141 2.4971 -8.4409 -1.94811 5.79524 3.7921 -1.55199 1.4806 -14.2679 6.48281 7.41471 1.4655 -1.808 0.960898 -15.7294 7.0184 8.23411 4.9141 -1.269 0.3591 10.4038 -12.5936 2.33178 3.1477 -1.685 0.8462 -18.2185 8.51742 9.60866 0.805498 -1.58501 0.795501 -8.80548 4.5937 4.39816 -1.7069 20.075 5.0056 -24.3321 0.510826 -29.456 -13.6458 -0.0470091 -4.849 31.8401 -24.7585 16.0613 -28.3255 -0.97589 2.2888 -18.0467 -38.4665 27.9223 -22.1583 -0.530009 10.8316 176.71 -36.8525 163.004 -0.786 0.112004 2.5817 -19.2123 49.9311 17.7821 -0.360106 -0.877993 4.2331 -0.518353 0.461627 -1.59081 -1.81269 -1.216 2.2227 -4.27665 4.78307 -14.602 -0.9571 1.114 1.7695 -8.82781e-032 3.18055e-015 1.59028e-015 -4.1246 0.487011 4.1451 -23.6186 3.40236 -15.5054 -3.4052 -1.45401 2.76819 39.498 10.0975 -9.27464 -1.4531 -1.795 1.2713 44.775 10.861 -10.9344 -5.6954 0.210002 2.1184 -1.04222 5.48655 -10.0636 -3.9766 -1.54 2.3863 52.3088 13.5301 -14.1044 -1.4042 -1.926 1.125 44.0034 12.3922 -11.1855 -2.0956 0.66 -0.3894 -8.82781e-032 3.18055e-015 1.59028e-015 -5.03951 -0.0899871 2.4971 16.4925 0.275245 -5.65902 -3.7921 -1.55201 1.4806 37.334 11.9098 -10.7862 -1.4655 -1.808 0.9609 38.6321 12.1695 -11.2724 -4.9141 -1.26899 0.3592 24.6637 -0.263275 -2.07533 -3.1477 -1.68501 0.846203 30.529 11.3152 -8.19435 -0.805501 -1.58499 0.795505 30.4593 11.2958 -8.1699 8.36701 -8.20661 0.598216 152.94 -51.3825 163.81 2.1923 -43.463 -0.493208 -0.514901 62.9649 3.01361 0.73331 -45.8593 -2.6451 17.8842 1.07665 -23.5521 -8.367 -8.2066 0.598202 -84.2591 -82.1024 -120.351 -2.19229 -43.463 -0.493104 36.4674 66.6506 -32.243 -0.733296 -45.8593 -2.6451 -4.52796 -14.0455 5.36351 
-72.4534 78.3085 46.6515 37.519 -54.8062 -174.381 2.1899e-006 -1.186 -1.5018 4.65465 6.94151 -2.83791 -9.50999e-007 9.964 0.2134 9.75725 13.6175 -6.30605 -4.18181e-007 13.134 -3.2573 9.75726 13.6175 -6.30605 -3.28474e-006 20.6861 -1.69055 -1.73056 -20.8329 -28.8691 2.92848e-006 7.23801 -0.123696 43.2725 8.45323 -1.9877 1.70689 20.075 5.0056 12.6397 -3.83828 -36.2561 13.6458 -0.0470092 -4.849 -40.4408 -19.2774 -64.5268 28.3255 -0.975905 2.2888 -22.9054 -1.88094 -74.6909 22.1583 -0.529994 10.8316 23.9335 31.6202 21.1267 0.786003 0.111997 2.5817 29.0018 36.8212 -34.7962 0.3601 -0.877997 4.2331 -6.33702 -0.117412 -11.5742 1.8127 -1.21601 2.2227 6.48484 1.48415 12.0601 0.9571 1.114 1.7695 5.51738e-032 -1.59028e-015 1.98785e-015 4.1246 0.486993 4.1451 -4.88732 4.53866 12.6179 3.4052 -1.45401 2.7682 -36.3636 10.0328 17.8992 1.4531 -1.79499 1.2713 -37.4308 10.1388 18.4808 5.6954 0.209987 2.1184 -1.58701 -0.577013 1.618 3.9766 -1.53999 2.3863 -43.8283 12.176 22.7531 1.4042 -1.926 1.125 -9.03165 4.06862 4.022 2.0956 0.66 -0.3894 5.51738e-032 -1.59028e-015 1.98785e-015 5.0395 -0.0900124 2.4971 -8.44092 -1.94818 5.79524 3.7921 -1.55199 1.4806 -14.2679 6.48283 7.4147 1.4655 -1.808 0.960901 -15.7293 7.01838 8.2341 4.9141 -1.269 0.3591 10.4038 -12.5937 2.33179 3.1477 -1.685 0.846199 -18.2185 8.51742 9.60865 0.805498 -1.58501 0.7955 -8.80547 4.59369 4.39815 -1.70691 20.075 5.0056 -23.5673 0.581735 -31.5921 -13.6458 -0.0470083 -4.84901 33.5593 -24.4466 17.0579 -28.3255 -0.975888 2.28879 -12.7336 -42.4049 34.8423 -22.1583 -0.530008 10.8316 176.48 -42.0149 165.29 -0.786 0.112005 2.5817 -19.2123 49.9312 17.7821 -0.360107 -0.877991 4.23311 -0.518207 0.461495 -1.59087 -1.8127 -1.216 2.2227 -4.26885 4.77175 -14.5711 -0.9571 1.114 1.7695 -3.18055e-015 -3.18055e-015 7.95139e-015 -4.1246 0.487011 4.1451 -23.6186 3.40236 -15.5054 -3.4052 -1.454 2.76819 39.498 10.0976 -9.27466 -1.4531 -1.795 1.2713 44.7459 10.8572 -10.925 -5.6954 0.210001 2.1184 -1.04222 5.48643 -10.0636 -3.9766 -1.54 2.3863 52.3089 13.53 -14.1043 -1.4042 -1.92599 1.12501 44.0034 12.3923 -11.1855 -2.0956 0.66 -0.3894 -3.18055e-015 -3.18055e-015 7.95139e-015 -5.03951 -0.0899887 2.49711 16.4925 0.27509 -5.65899 -3.7921 -1.55201 1.4806 37.3339 11.9098 -10.7862 -1.4655 -1.80801 0.960897 38.6322 12.1693 -11.2724 -4.91411 -1.26899 0.359198 24.6636 -0.263211 -2.07535 -3.1477 -1.68501 0.846204 30.529 11.3152 -8.19433 -0.805498 -1.585 0.795495 30.4593 11.2959 -8.16992 8.36701 -8.2066 0.598208 152.809 -52.8375 163.565 2.19231 -43.463 -0.493229 -0.542439 58.2407 2.95285 0.733309 -45.8593 -2.6451 16.6856 2.12387 -24.2924 -8.367 -8.2066 0.598201 -90.8547 -84.9233 -125.852 -2.19229 -43.4631 -0.49311 29.6019 63.0779 -25.5697 -0.7333 -45.8593 -2.64512 -4.01182 -13.9289 3.27842 
-72.2177 80.0133 46.5044 38.8224 -56.219 -172.686 2.11194e-007 -1.186 -1.5018 4.95073 6.78306 -2.74092 3.96912e-009 9.964 0.213395 10.3305 13.2928 -6.12815 -1.2797e-006 13.134 -3.2573 10.3305 13.2928 -6.12815 -5.24057e-006 20.686 -1.69053 -1.89161 -23.4056 -31.0123 4.86247e-006 7.238 -0.123699 42.9823 9.53363 -3.03456 1.7069 20.075 5.0056 12.5966 -3.88757 -37.5876 13.6458 -0.0470144 -4.849 -39.6515 -19.4986 -61.588 28.3255 -0.975898 2.2888 -23.7844 -2.4091 -78.3297 22.1583 -0.529989 10.8316 22.7945 33.3542 21.6168 0.786004 0.111996 2.5817 29.0018 36.8212 -34.7962 0.360097 -0.878002 4.2331 -6.33703 -0.117431 -11.5742 1.8127 -1.21601 2.2227 6.48483 1.48414 12.0601 0.9571 1.114 1.7695 3.18055e-015 1.59028e-015 -2.78299e-015 4.12461 0.486991 4.14511 -4.88732 4.53869 12.6179 3.4052 -1.45401 2.7682 -36.3636 10.0329 17.8992 1.4531 -1.79499 1.2713 -37.4308 10.1388 18.4808 5.6954 0.209987 2.11841 -1.58704 -0.577006 1.618 3.9766 -1.53999 2.3863 -43.8283 12.1761 22.7531 1.4042 -1.926 1.125 -9.03165 4.06863 4.02201 2.0956 0.66 -0.3894 3.18055e-015 1.59028e-015 -2.78299e-015 5.03951 -0.0900133 2.4971 -8.44097 -1.94823 5.79523 3.7921 -1.55199 1.4806 -14.2679 6.48281 7.41471 1.4655 -1.808 0.960897 -15.7294 7.0184 8.23412 4.9141 -1.269 0.359104 10.4038 -12.5937 2.33179 3.1477 -1.685 0.8462 -18.2185 8.5174 9.60866 0.805498 -1.58501 0.795498 -8.80548 4.5937 4.39816 -1.7069 20.075 5.0056 -23.152 0.644359 -33.5546 -13.6458 -0.0470111 -4.84901 35.1123 -23.6006 17.7139 -28.3255 -0.975884 2.28879 -7.46761 -45.3266 42.3788 -22.1583 -0.530012 10.8316 176.903 -46.5192 168.167 -0.786001 0.112006 2.5817 -19.2124 49.9313 17.7822 -0.360109 -0.87799 4.23311 -0.518209 0.461483 -1.59088 -1.8127 -1.216 2.2227 -4.26106 4.76047 -14.5403 -0.9571 1.114 1.7695 -3.18055e-015 3.18055e-015 -4.77083e-015 -4.1246 0.487011 4.1451 -23.6186 3.40242 -15.5054 -3.4052 -1.45401 2.7682 39.498 10.0976 -9.27468 -1.4531 -1.795 1.27129 44.7092 10.8524 -10.9133 -5.6954 0.21 2.1184 -1.0422 5.48645 -10.0636 -3.9766 -1.54 2.3863 52.3089 13.53 -14.1044 -1.4042 -1.92599 1.12501 44.0034 12.3922 -11.1855 -2.0956 0.66 -0.3894 -3.18055e-015 3.18055e-015 -4.77083e-015 -5.03951 -0.0899889 2.4971 16.4925 0.275087 -5.65899 -3.7921 -1.55201 1.4806 37.334 11.9097 -10.7862 -1.4655 -1.808 0.960906 38.6321 12.1694 -11.2724 -4.91411 -1.26899 0.359203 24.6637 -0.263325 -2.07533 -3.1477 -1.68501 0.846202 30.529 11.3152 -8.19433 -0.805501 -1.58499 0.795503 30.4593 11.2959 -8.1699 8.367 -8.2066 0.5982 152.638 -54.2383 163.159 2.19231 -43.463 -0.493218 -0.561197 53.8716 2.89698 0.7333 -45.8593 -2.6451 16.0751 2.93407 -25.0817 -8.367 -8.2066 0.598196 -107.751 -87.525 -141.501 -2.19229 -43.463 -0.4931 24.6394 59.4785 -20.7818 -0.73331 -45.8593 -2.6451 -3.64872 -13.7026 0.98865 
